<svg width="1497" height="634" viewBox="0 0 1497 634" fill="none" xmlns="http://www.w3.org/2000/svg">
<g clip-path="url(#clip0_125_2)">
<rect width="1497" height="634" fill="#131313"/>
<path d="M0 -1.41331H1497V667H0V-1.41331Z" fill="#819CFF"/>
<rect x="-55" y="-122.147" width="1552" height="145.219" fill="#131313"/>
<mask id="path-3-outside-1_125_2" maskUnits="userSpaceOnUse" x="-170" y="-178.751" width="1740" height="280" fill="black">
<rect fill="white" x="-170" y="-178.751" width="1740" height="280"/>
<path d="M-67 -1.75127H1467V-178H-67V-1.75127Z"/>
</mask>
<path d="M-67 -1.75127H1467V-178H-67V-1.75127Z" fill="#131313"/>
<path d="M-67 49.7487C-95.4427 49.7487 -118.5 26.6914 -118.5 -1.75127C-118.5 -30.1939 -95.4427 -53.2513 -67 -53.2513V49.7487ZM1467 -53.2513C1495.44 -53.2513 1518.5 -30.1939 1518.5 -1.75127C1518.5 26.6914 1495.44 49.7487 1467 49.7487V-53.2513ZM1371.12 49.7487C1342.68 49.7487 1319.62 26.6914 1319.62 -1.75127C1319.62 -30.1939 1342.68 -53.2513 1371.12 -53.2513V49.7487ZM1179.38 -53.2513C1207.82 -53.2513 1230.88 -30.1939 1230.88 -1.75127C1230.88 26.6914 1207.82 49.7487 1179.38 49.7487V-53.2513ZM987.625 49.7487C959.182 49.7487 936.125 26.6914 936.125 -1.75127C936.125 -30.1939 959.182 -53.2513 987.625 -53.2513V49.7487ZM795.875 -53.2513C824.318 -53.2513 847.375 -30.1939 847.375 -1.75127C847.375 26.6914 824.318 49.7487 795.875 49.7487V-53.2513ZM604.125 49.7487C575.682 49.7487 552.625 26.6914 552.625 -1.75127C552.625 -30.1939 575.682 -53.2513 604.125 -53.2513V49.7487ZM412.375 -53.2513C440.818 -53.2513 463.875 -30.1939 463.875 -1.75127C463.875 26.6914 440.818 49.7487 412.375 49.7487V-53.2513ZM220.625 49.7487C192.182 49.7487 169.125 26.6914 169.125 -1.75127C169.125 -30.1939 192.182 -53.2513 220.625 -53.2513V49.7487ZM28.875 -53.2513C57.3177 -53.2513 80.375 -30.1939 80.375 -1.75127C80.375 26.6914 57.3177 49.7487 28.875 49.7487V-53.2513ZM1467 49.7487H1371.12V-53.2513H1467V49.7487ZM1179.38 49.7487H987.625V-53.2513H1179.38V49.7487ZM795.875 49.7487H604.125V-53.2513H795.875V49.7487ZM412.375 49.7487H220.625V-53.2513H412.375V49.7487ZM28.875 49.7487H-67V-53.2513H28.875V49.7487ZM-67 101.249C-123.885 101.249 -170 55.1341 -170 -1.75127C-170 -58.6366 -123.885 -104.751 -67 -104.751V101.249ZM1467 -104.751C1523.89 -104.751 1570 -58.6366 1570 -1.75127C1570 55.1341 1523.89 101.249 1467 101.249V-104.751ZM1371.12 101.249C1314.24 101.249 1268.12 55.1341 1268.12 -1.75127C1268.12 -58.6366 1314.24 -104.751 1371.12 -104.751V101.249ZM1179.38 -104.751C1236.26 -104.751 1282.38 -58.6366 1282.38 -1.75127C1282.38 55.1341 1236.26 101.249 1179.38 101.249V-104.751ZM987.625 101.249C930.74 101.249 884.625 55.1341 884.625 -1.75127C884.625 -58.6366 930.74 -104.751 987.625 -104.751V101.249ZM795.875 -104.751C852.76 -104.751 898.875 -58.6366 898.875 -1.75127C898.875 55.1341 852.76 101.249 795.875 101.249V-104.751ZM604.125 101.249C547.24 101.249 501.125 55.1341 501.125 -1.75127C501.125 -58.6366 547.24 -104.751 604.125 -104.751V101.249ZM412.375 -104.751C469.26 -104.751 515.375 -58.6366 515.375 -1.75127C515.375 55.1341 469.26 101.249 412.375 101.249V-104.751ZM220.625 101.249C163.74 101.249 117.625 55.1341 117.625 -1.75127C117.625 -58.6366 163.74 -104.751 220.625 -104.751V101.249ZM28.875 -104.751C85.7603 -104.751 131.875 -58.6366 131.875 -1.75127C131.875 55.1341 85.7603 101.249 28.875 101.249V-104.751ZM1467 101.249H1371.12V-104.751H1467V101.249ZM1179.38 101.249H987.625V-104.751H1179.38V101.249ZM795.875 101.249H604.125V-104.751H795.875V101.249ZM412.375 101.249H220.625V-104.751H412.375V101.249ZM28.875 101.249H-67V-104.751H28.875V101.249Z" fill="#131313" mask="url(#path-3-outside-1_125_2)"/>
</g>
<defs>
<clipPath id="clip0_125_2">
<rect width="1497" height="634" fill="white"/>
</clipPath>
</defs>
</svg>
