<svg width="139" height="131" viewBox="0 0 139 131" fill="none" xmlns="http://www.w3.org/2000/svg">
<path d="M58.6361 34.5934C58.6361 34.5934 54.5934 29.3907 49.9957 32.8599C45.3981 36.329 50.7884 40.3326 50.7884 40.3326L92.24 80.8167C92.24 80.8167 104.931 90.4894 96.4865 96.686C88.0333 102.874 78.6893 91.0301 78.6893 91.0301L24.3542 37.9478C24.3542 37.9478 10.3092 25.4727 23.6092 15.4407C36.9128 5.42503 49.5447 19.0225 49.5447 19.0225L110.602 78.6677C110.602 78.6677 133.347 97.9571 113.154 113.173C92.9615 128.389 73.8483 106.362 73.8483 106.362L27.4793 61.0787C27.4793 61.0787 23.1947 56.066 18.8395 59.3371C14.488 62.6246 19.7384 66.9093 19.7384 66.9093L72.9305 118.871C72.9305 118.871 95.0645 138.617 120.092 119.75C145.133 100.883 125.168 79.4911 125.168 79.4911L52.051 8.07407C52.051 8.07407 35.8305 -6.31719 16.3524 8.3561C-3.12567 23.0294 11.4142 38.6911 11.4142 38.6911L74.312 100.142C74.312 100.142 87.242 115.677 103.553 103.376C119.882 91.0756 103.33 78.2708 103.33 78.2708L58.6361 34.5934Z" fill="#FF9797"/>
</svg>
